# xmcd CD database file
#
# Track frame offsets:
#	150
#	3150
#	22092
#	43032
#
# Disc length: 824 seconds
#
# Revision: 0
# Processed by: cddbd v1.5.1PL0 Copyright (c) Steve Scherf et al.
# Submitted via: CDex 1.50
#
DISCID=26033604
DTITLE=岡本麻見 - センチメンタルジャーニー 星野明日香_Ground Cherry〜魔法の実〜
DYEAR=1900
DGENRE=Anime
TTITLE0=Ground Cherry〜魔法の実〜〜Prologue〜
TTITLE1=Ground Cherry〜魔法の実〜
TTITLE2=My sweet memories〜Ground Cherry〜魔法の実〜〜
TTITLE3=Ground Cherry〜魔法の実〜(オリジナル・カラオケ)
EXTD=
EXTT0=
EXTT1=
EXTT2=
EXTT3=
PLAYORDER=
